<svg width="36" height="36" viewBox="0 0 36 36" fill="none" xmlns="http://www.w3.org/2000/svg">
<rect width="36" height="36" rx="8" fill="#0C2964"/>
<path d="M21.7078 14.3305C22.6507 15.2648 21.1422 22.8628 19.5942 22.9967C18.2957 23.109 17.891 20.5478 17.6175 19.7361C17.3476 18.9349 17.0472 18.6465 16.2527 18.3836C14.2341 17.7159 13.2249 17.382 13.0251 16.8533C12.4959 15.4534 20.5036 13.1373 21.7078 14.3305Z" stroke="white" stroke-width="1.5"/>
<path d="M28 18C28 23.5228 23.5228 28 18 28C12.4772 28 8 23.5228 8 18C8 12.4772 12.4772 8 18 8C23.5228 8 28 12.4772 28 18Z" stroke="white" stroke-width="1.5"/>
</svg>
