<svg width="76" height="40" viewBox="0 0 76 40" fill="none" xmlns="http://www.w3.org/2000/svg">
<rect width="76" height="40" rx="8" fill="#ECF1E9"/>
<g clip-path="url(#clip0_60211_1501)">
<path d="M40.9506 14.4245C41.0196 14.2864 41.0048 14.1237 40.9111 14.0054L38.3181 10.6039C38.2442 10.5053 38.1258 10.4462 38.0026 10.4462C37.8793 10.4462 37.761 10.5053 37.6822 10.6039L35.0891 14.0054C34.9954 14.1237 34.9856 14.2914 35.0497 14.4245C35.1187 14.5625 35.2567 14.6463 35.4095 14.6463H36.0751V18.1316C37.761 18.9648 39.1217 20.35 39.9252 22.0508V14.6463H40.5907C40.7435 14.6463 40.8816 14.5575 40.9506 14.4245Z" fill="#121212"/>
<path d="M44.4406 17.0914C44.3223 16.9978 44.1547 16.9879 44.0216 17.052C43.8836 17.121 43.7998 17.259 43.7998 17.4119V18.0774H43.6075C42.6068 18.0774 41.6307 18.2746 40.7285 18.6492V23.1353C41.3546 22.3958 42.2863 21.9275 43.3216 21.9275H43.7998V22.593C43.7998 22.7458 43.8885 22.8839 44.0216 22.9529C44.1596 23.0219 44.3223 23.0071 44.4406 22.9135L47.8421 20.3204C47.9407 20.2465 47.9999 20.1282 47.9999 20.0049C47.9999 19.8767 47.9407 19.7633 47.8421 19.6845L44.4406 17.0914Z" fill="#121212"/>
<path d="M28.1627 20.3155L31.5642 22.9085C31.6825 23.0022 31.8502 23.017 31.9832 22.948C32.1213 22.879 32.2051 22.7409 32.2051 22.5881V21.9226H32.6833C34.5566 21.9226 36.075 23.4459 36.075 25.3143V29.1545C36.075 29.3764 36.2524 29.5538 36.4743 29.5538H39.5258C39.7476 29.5538 39.9251 29.3764 39.9251 29.1545V25.6051C39.9251 21.4543 36.5482 18.0774 32.3973 18.0774H32.2002V17.4119C32.2002 17.2591 32.1164 17.121 31.9783 17.052C31.8403 16.9879 31.6776 16.9978 31.5593 17.0914L28.1577 19.6845C28.0591 19.7584 28 19.8767 28 20.0049C28.0049 20.1281 28.0591 20.2415 28.1627 20.3155Z" fill="#121212"/>
</g>
<defs>
<clipPath id="clip0_60211_1501">
<rect width="20" height="20" fill="white" transform="translate(28 10)"/>
</clipPath>
</defs>
</svg>
