<svg width="16" height="16" viewBox="0 0 16 16" fill="none" xmlns="http://www.w3.org/2000/svg">
<path d="M7.3335 10H8.66683V11.3333H7.3335V10ZM7.3335 4.66666H8.66683V8.66666H7.3335V4.66666ZM7.9935 1.33333C4.3135 1.33333 1.3335 4.31999 1.3335 8C1.3335 11.68 4.3135 14.6667 7.9935 14.6667C11.6802 14.6667 14.6668 11.68 14.6668 8C14.6668 4.31999 11.6802 1.33333 7.9935 1.33333ZM8.00016 13.3333C5.0535 13.3333 2.66683 10.9467 2.66683 8C2.66683 5.05333 5.0535 2.66666 8.00016 2.66666C10.9468 2.66666 13.3335 5.05333 13.3335 8C13.3335 10.9467 10.9468 13.3333 8.00016 13.3333Z" fill="#410002"/>
</svg>
