<svg width="390" height="428" viewBox="0 0 390 428" fill="none" xmlns="http://www.w3.org/2000/svg">
<path d="M257.688 112.237C258.17 108.698 253.184 105.794 249.431 105.486C247.647 105.341 245.785 105.611 244.088 105.023C240.413 103.74 238.947 99.0038 235.368 97.4894C232.687 96.3609 229.61 97.364 227.006 98.6758C224.411 99.978 221.845 101.627 218.942 101.811C216.415 101.975 213.675 101.039 211.467 102.274C209.817 103.19 208.959 105.09 207.444 106.209C205.959 107.299 204.03 107.53 202.188 107.637C200.345 107.733 198.445 107.752 196.767 108.524C195.088 109.296 193.699 111.061 194.056 112.874L257.688 112.247V112.237Z" fill="#F5F5F5"/>
<path d="M273.683 362.656C273.966 359.28 273.503 354.913 269.568 353.612C262.906 351.409 258.958 346.244 259.177 340.408C259.395 334.56 252.387 328.879 247.127 334.354C241.867 339.828 242.574 330.141 235.566 327.784C228.557 325.426 222.616 331.146 224.532 336.363C226.448 341.58 219.529 344.84 211.247 340.408C202.966 335.964 193.848 344.041 195.61 350.366C197.372 356.691 195.931 357.387 190.684 355.287C186.453 353.587 179.522 357.155 178.75 362.668H273.683V362.656Z" fill="#E0E0E0"/>
<path d="M270.514 44.4806C270.514 41.3374 273.06 38.7738 276.211 38.7738C276.777 38.7738 277.33 38.864 277.844 39.0186C277.767 38.4518 277.716 37.8592 277.716 37.2666C277.716 30.5937 283.117 25.1961 289.766 25.1961C290.524 25.1961 291.27 25.2734 291.99 25.4022C293.842 22.362 297.173 20.3267 300.98 20.3267C306.754 20.3267 311.435 24.9771 311.512 30.7354C311.576 30.7354 311.628 30.7354 311.692 30.7354C317.054 30.7354 321.401 35.0895 321.401 40.4614C321.401 45.8332 317.054 50.1874 311.692 50.1874H276.044C272.97 50.0972 270.514 47.5852 270.514 44.4806Z" fill="#F5F5F5"/>
<path d="M-111.987 364.923V381.592H356.85V364.923C356.85 362.025 354.831 359.693 351.937 359.693H-107.087C-109.981 359.693 -112 362.025 -112 364.923H-111.987Z" fill="#E0E0E0"/>
<path d="M330.127 359.693H300.973V381.592H330.127V359.693Z" fill="#F5F5F5"/>
<path d="M274.25 359.693H246.318V381.592H274.25V359.693Z" fill="#F5F5F5"/>
<path d="M219.595 359.693H190.442V381.592H219.595V359.693Z" fill="#F5F5F5"/>
<path d="M163.718 359.693H135.786V381.592H163.718V359.693Z" fill="#F5F5F5"/>
<path d="M109.063 359.693H81.1315V381.592H109.063V359.693Z" fill="#F5F5F5"/>
<path d="M54.4084 359.693H25.2548V381.592H54.4084V359.693Z" fill="#F5F5F5"/>
<path d="M198.196 146.267C199.453 137.152 186.583 129.645 176.913 128.874C172.305 128.505 167.512 129.209 163.138 127.684C153.67 124.383 149.9 112.151 140.649 108.264C133.745 105.348 125.802 107.945 119.099 111.313C112.412 114.681 105.793 118.921 98.3023 119.407C91.8003 119.826 84.7285 117.413 79.0476 120.596C74.8079 122.959 72.5791 127.852 68.6745 130.734C64.8537 133.549 59.8599 134.152 55.1174 134.404C50.375 134.655 45.4649 134.705 41.1414 136.683C36.8179 138.66 33.2485 143.234 34.1366 147.893L198.179 146.267H198.196Z" fill="#F5F5F5"/>
<path d="M92.9469 78.0461C93.7273 72.6962 85.7365 68.2904 79.7329 67.838C76.8717 67.6216 73.8959 68.0347 71.1803 67.1398C65.3016 65.2024 62.9606 58.0233 57.2172 55.7417C52.9304 54.0306 47.9986 55.5549 43.8367 57.5316C39.6852 59.5083 35.5754 61.9964 30.9245 62.2816C26.8874 62.5275 22.4967 61.1113 18.9695 62.9798C16.3371 64.3665 14.9532 67.2381 12.5289 68.9296C10.1567 70.5818 7.05606 70.9358 4.11153 71.0833C1.167 71.2309 -1.88158 71.2604 -4.566 72.4208C-7.25041 73.5813 -9.46662 76.266 -8.91517 79L92.9365 78.0461H92.9469Z" fill="#F5F5F5"/>
<path d="M329.878 418.922L189.448 418.278C172.555 418.204 158.926 404.447 159 387.553L160.49 35.4718C160.564 18.5667 174.319 4.92634 191.223 5.0003L331.653 5.64481C348.546 5.71877 362.175 19.4753 362.101 36.3699L360.611 388.461C360.537 405.366 346.782 419.007 329.878 418.922Z" fill="#455A64"/>
<path d="M331.452 17.8057L304.226 17.6789C300.571 17.6578 297.602 20.743 297.591 24.5572L297.57 29.4914C297.56 33.3056 294.58 36.3908 290.935 36.3697L237.868 36.1267C234.212 36.1055 231.265 32.9992 231.286 29.185L231.307 24.2508C231.317 20.4366 228.38 17.3197 224.725 17.3091L215.153 17.2669L191.318 17.1612C179.486 17.1084 169.85 26.6598 169.798 38.4934L168.34 382.153C168.287 393.987 177.838 403.612 189.66 403.665L329.814 404.309C341.647 404.362 351.282 394.811 351.335 382.977L352.793 39.3175C352.846 27.4839 343.295 17.8586 331.473 17.8057H331.452Z" fill="#FAFAFA"/>
<path d="M191.34 58.7901C191.234 58.8958 188.878 56.846 186.068 54.2046C186.068 53.4016 186.068 53.9827 186.068 53.8031H186.078L186.099 53.7714L186.131 53.7397L186.194 53.6763L186.321 53.5495L186.585 53.3065C186.754 53.1481 186.923 52.9896 187.092 52.8311C187.42 52.5247 187.747 52.2288 188.064 51.9436C188.645 51.4258 189.195 50.9398 189.723 50.4644C190.674 49.6297 191.297 49.1542 191.35 49.207C191.403 49.2599 190.875 49.8516 189.987 50.7496C189.48 51.2462 188.962 51.7639 188.413 52.3134L187.473 53.222L186.966 53.6975L186.712 53.9405L186.585 54.0673L186.522 54.1307L186.49 54.1624H186.469V54.1835H186.459C186.459 54.0144 186.459 54.585 186.459 53.7926C189.269 56.4446 191.466 58.6739 191.361 58.7796L191.34 58.7901Z" fill="#263238"/>
<path d="M337.368 50.7286C337.368 51.3625 336.851 51.8697 336.227 51.8697C335.604 51.8697 335.086 51.3519 335.086 50.7286C335.086 50.1052 335.604 49.5875 336.227 49.5875C336.851 49.5875 337.368 50.1052 337.368 50.7286Z" fill="#263238"/>
<path d="M337.041 53.8563C337.485 54.3001 337.485 55.0291 337.041 55.4729C336.597 55.9167 335.868 55.9167 335.424 55.4729C334.981 55.0291 334.981 54.3001 335.424 53.8563C335.868 53.4126 336.597 53.4126 337.041 53.8563Z" fill="#263238"/>
<path d="M337.368 58.6108C337.368 59.2448 336.851 59.7519 336.227 59.7519C335.604 59.7519 335.086 59.2342 335.086 58.6108C335.086 57.9874 335.604 57.4697 336.227 57.4697C336.851 57.4697 337.368 57.9874 337.368 58.6108Z" fill="#263238"/>
<path d="M287.861 55.4091H238.438V59.5297H287.861V55.4091Z" fill="#263238"/>
<path d="M347 207.509V316.48C347 319.53 344.53 322 341.491 322H180.52C177.47 322 175 319.53 175 316.48V207.509C175 204.47 177.47 202 180.52 202H341.491C344.53 202 347 204.47 347 207.509Z" fill="#EBEBEB"/>
<path d="M347 241.774C325.061 248.638 302.412 255.754 280.681 262.618L300.499 299.572L347 301.146V312.087L293.842 310.283L270.067 265.973C259.945 269.176 250.096 272.301 240.674 275.285L262.044 322H250.031L230.18 278.63C207.848 285.745 188.598 291.954 175 296.435V284.937C179.001 283.625 183.472 282.16 188.369 280.575C198.753 277.209 211.204 273.209 225.6 268.618L207.083 228.123L175 238.32V226.855L202.503 218.111L195.135 202H207.148L236.094 265.274C247.484 261.656 259.934 257.71 273.412 253.458C281.25 250.988 289.087 248.507 296.816 246.081L276.506 202H288.552L307.331 242.769C321.454 238.331 334.954 234.101 347 230.32V241.774Z" fill="white"/>
<rect x="174" y="336" width="171" height="40" rx="6" fill="#EBEBEB"/>
<path d="M341.279 83H180.721C178.114 83 176 85.3483 176 88.245V181.755C176 184.652 178.114 187 180.721 187H341.279C343.886 187 346 184.652 346 181.755V88.245C346 85.3483 343.886 83 341.279 83Z" fill="#EBEBEB"/>
<path d="M303.357 90.4626H219.135C216.958 90.4626 215.193 92.2305 215.193 94.4113V175.578C215.193 177.759 216.958 179.527 219.135 179.527H303.357C305.534 179.527 307.299 177.759 307.299 175.578V94.4113C307.299 92.2305 305.534 90.4626 303.357 90.4626Z" fill="white"/>
<path d="M228.416 136.546H292.689L291.401 125.004L272.882 121.033L255.674 124.038L234.946 126.077L229.802 131.979L228.416 136.546Z" fill="#263238"/>
<path opacity="0.2" d="M228.416 136.546H292.689L291.401 125.004L272.882 121.033L255.674 124.038L234.946 126.077L229.802 131.979L228.416 136.546Z" fill="#0C2964"/>
<path d="M246.296 136.546C246.296 140.311 243.252 143.359 239.495 143.359C235.737 143.359 232.694 140.311 232.694 136.546C232.694 132.782 235.737 129.734 239.495 129.734C243.252 129.734 246.296 132.782 246.296 136.546Z" fill="#263238"/>
<path opacity="0.2" d="M239.494 141.103C242.006 141.103 244.043 139.063 244.043 136.546C244.043 134.03 242.006 131.99 239.494 131.99C236.982 131.99 234.946 134.03 234.946 136.546C234.946 139.063 236.982 141.103 239.494 141.103Z" fill="#0C2964"/>
<path d="M290.697 136.546C290.697 140.311 287.654 143.359 283.896 143.359C280.138 143.359 277.095 140.311 277.095 136.546C277.095 132.782 280.138 129.734 283.896 129.734C287.654 129.734 290.697 132.782 290.697 136.546Z" fill="#263238"/>
<path opacity="0.2" d="M283.896 141.103C286.408 141.103 288.444 139.063 288.444 136.546C288.444 134.03 286.408 131.99 283.896 131.99C281.384 131.99 279.347 134.03 279.347 136.546C279.347 139.063 281.384 141.103 283.896 141.103Z" fill="#0C2964"/>
<path d="M297.076 130.481L296.329 135.808L292.148 137.131C292.148 137.131 292.04 128.127 282.943 128.127C273.846 128.127 275.016 138.856 275.016 138.856H273.424L270.424 137.565H250.779L249.068 138.856H247.909C247.909 138.856 248.873 128.127 239.495 128.127C230.116 128.127 231.308 138.856 231.308 138.856L225.947 136.546L225.416 131.132L227.658 129.733L228.199 126.446C228.438 126.262 228.687 126.088 228.936 125.925C235.206 121.716 243.783 121.152 243.783 121.152C251.158 113.634 254.147 112.571 254.147 112.571C271.074 111.389 287.221 113.211 287.221 113.211L292.148 119.536L293.307 120.479L294.509 121.467C295.256 124.906 295.04 128.127 295.04 128.127L297.076 130.481Z" fill="#407BFF"/>
<path opacity="0.6" d="M233.592 126.294L229.834 129.733H227.658L228.199 126.446C228.437 126.262 228.687 126.088 228.936 125.925L231.665 125.513L233.592 126.294Z" fill="white"/>
<path opacity="0.6" d="M295.04 128.128L293.675 127.618C293.675 124.765 291.964 121.901 291.964 121.901L293.307 120.48L294.509 121.467C295.256 124.906 295.04 128.128 295.04 128.128Z" fill="white"/>
<path d="M292.148 119.536C283.235 121.673 243.783 121.152 243.783 121.152C244.01 120.924 244.227 120.697 244.454 120.48C248.515 116.401 251.158 114.383 252.642 113.417C253.67 112.734 254.147 112.571 254.147 112.571C271.074 111.389 287.221 113.211 287.221 113.211L292.148 119.536Z" fill="#263238"/>
<path opacity="0.2" d="M297.076 130.482L296.328 135.808L292.148 137.132C292.148 137.132 292.04 128.128 282.943 128.128C273.846 128.128 275.016 138.857 275.016 138.857H273.424L270.424 137.566H250.779L249.068 138.857H247.909C247.909 138.857 248.873 128.128 239.495 128.128C230.116 128.128 231.307 138.857 231.307 138.857L225.947 136.546L225.416 131.133H229.835C229.835 131.133 233.051 125.871 240.123 125.871C247.195 125.871 249.469 131.133 249.469 131.133H272.146C272.146 131.133 276.001 125.796 281.676 125.513C287.351 125.231 290.697 127.618 290.697 127.618H293.675L295.04 128.128L297.076 130.482Z" fill="#0C2964"/>
<path d="M346.448 124.439V138.997H324.269C324.269 138.997 325.742 134.018 326.89 130.633C327.453 128.952 327.94 127.65 328.125 127.553C331.059 125.947 337.947 124.982 346.448 124.439Z" fill="#263238"/>
<path opacity="0.2" d="M346.448 124.439V138.997H324.269C324.269 138.997 325.742 134.018 326.89 130.633C327.453 128.952 327.94 127.65 328.125 127.553C331.059 125.947 337.947 124.982 346.448 124.439Z" fill="#0C2964"/>
<path d="M336.593 143.348C340.17 143.348 343.069 140.443 343.069 136.86C343.069 133.278 340.17 130.373 336.593 130.373C333.016 130.373 330.117 133.278 330.117 136.86C330.117 140.443 333.016 143.348 336.593 143.348Z" fill="#263238"/>
<path opacity="0.2" d="M336.593 142.599C339.757 142.599 342.322 140.029 342.322 136.86C342.322 133.691 339.757 131.121 336.593 131.121C333.429 131.121 330.864 133.691 330.864 136.86C330.864 140.029 333.429 142.599 336.593 142.599Z" fill="white"/>
<path d="M338.12 118.245C341.293 116.303 344.033 114.719 346.448 113.439V140.918H344.336L343.979 138.997L343.156 134.56C342.669 131.903 340.362 129.983 337.665 129.983H335.077C332.576 129.983 330.388 131.642 329.706 134.051L328.309 138.997L327.767 140.918L318.984 139.778L320.1 132.304L320.273 131.122L321.984 129.983L325.341 122.259L328.46 121.282L338.12 118.245Z" fill="#407BFF"/>
<path opacity="0.7" d="M330.117 121.825L325.991 128.833L321.995 129.983L325.352 122.259L328.471 121.282C329.446 121.565 330.117 121.825 330.117 121.825Z" fill="white"/>
<path opacity="0.4" d="M346.448 115.359V119.547C344.163 119.579 341.932 119.46 340.015 119.113C340.015 119.113 343.113 117.258 346.448 115.359Z" fill="#0C2964"/>
<path opacity="0.2" d="M346.448 132.478V140.918H344.336L343.979 138.998L343.156 134.561C342.669 131.903 340.362 129.983 337.665 129.983H335.077C332.576 129.983 330.388 131.643 329.706 134.051L328.309 138.998L327.767 140.918L318.984 139.779L320.1 132.305L326.695 130.374L326.89 130.634L328.125 132.272C328.125 132.272 330.28 128.117 337.633 128.117C343.503 128.117 345.777 131.231 346.448 132.478Z" fill="#0C2964"/>
<path d="M276.976 170.891H245.527C242.7 170.891 240.415 168.602 240.415 165.771C240.415 162.94 242.7 160.651 245.527 160.651H276.976C279.803 160.651 282.088 162.94 282.088 165.771C282.088 168.602 279.803 170.891 276.976 170.891Z" fill="#407BFF"/>
<mask id="mask0_60387_5307" style="mask-type:alpha" maskUnits="userSpaceOnUse" x="176" y="101" width="170" height="83">
<path d="M341.279 101H180.721C178.114 101 176 102.874 176 105.186V179.814C176 182.126 178.114 184 180.721 184H341.279C343.886 184 346 182.126 346 179.814V105.186C346 102.874 343.886 101 341.279 101Z" fill="white"/>
</mask>
<g mask="url(#mask0_60387_5307)">
<path d="M126.195 137.148L197.962 137.261L197.978 126.64L126.212 126.527L126.195 137.148Z" fill="#455A64"/>
<path d="M201.716 118.815C201.716 118.815 199.92 119.016 199.602 118.812C198.881 118.347 183.173 112.018 169.675 112C158.85 111.985 149.103 114.858 139.621 121.186C139.621 121.186 128.077 122.46 123.568 125.839C122.513 126.451 120.362 128.86 121.183 134.337C121.705 137.831 124.306 137.978 127.858 137.899C127.858 137.899 126.536 127.29 135.992 128.101C144.026 128.791 142.488 138.598 142.488 138.598L182.742 138.66C182.742 138.66 182.919 134.304 183.089 133.248C183.43 131.134 186.057 127.671 190.962 128.185C196.341 128.75 198.131 133.659 197.787 137.802C197.787 137.802 203.462 139.029 204.229 134.463L205.582 134.042C205.582 134.042 206.103 124.572 201.375 120.589L202.391 119.914L201.716 118.813V118.815Z" fill="#407BFF"/>
<path d="M199.039 118.512C199.039 118.512 198.703 119.425 197.55 119.323C196.61 119.241 191.237 117.205 189.281 116.454C188.719 116.238 188.271 115.782 188.111 115.201C188.072 115.057 188.055 114.924 188.085 114.827C188.085 114.827 196.435 116.832 199.039 118.512Z" fill="#263238"/>
<g opacity="0.3">
<path d="M191.078 119.323C191.078 119.323 191.645 119.815 191.077 120.398C190.509 120.979 187.793 122.999 186.532 123.12C185.272 123.241 146.991 125.799 144.722 125.15C142.453 124.501 141.131 123.352 141.699 122.696L142.728 122.356L160.776 122.725L191.08 119.323H191.078Z" fill="white"/>
</g>
<g opacity="0.7">
<path d="M205.005 127.464C205.005 127.464 202.776 128.124 201.825 126.367C200.875 124.609 199.824 122.751 199.824 122.35C199.824 121.845 200.184 120.228 201.376 120.557C201.376 120.557 204.689 123.196 205.005 127.464Z" fill="white"/>
</g>
<path d="M190.7 119.323C190.7 119.323 187.353 122.236 185.903 122.233C184.453 122.231 146.235 124.551 144.534 123.863C142.833 123.175 141.948 122.612 141.948 122.612C141.948 122.612 154.419 113.63 168.952 114.062C179.617 114.378 190.7 119.322 190.7 119.322V119.323Z" fill="#263238"/>
<path d="M194.575 140.472C197.076 137.971 197.076 133.916 194.575 131.415C192.074 128.914 188.019 128.914 185.519 131.415C183.018 133.916 183.018 137.971 185.519 140.472C188.019 142.972 192.074 142.972 194.575 140.472Z" fill="#263238"/>
<path d="M190.054 131.678C187.698 131.675 185.79 133.583 185.785 135.939C185.782 138.289 187.683 140.203 190.039 140.208C192.396 140.212 194.304 138.304 194.309 135.954C194.312 133.597 192.41 131.683 190.054 131.68V131.678ZM186.631 135.941C186.634 134.054 188.165 132.521 190.052 132.524C191.939 132.528 193.466 134.065 193.462 135.952C193.459 137.839 191.928 139.365 190.041 139.362C188.154 139.359 186.628 137.828 186.631 135.941Z" fill="#1E282D"/>
<path d="M190.053 132.522C188.166 132.519 186.635 134.053 186.631 135.939C186.628 137.826 188.156 139.357 190.041 139.36C191.928 139.363 193.459 137.835 193.463 135.95C193.466 134.065 191.938 132.525 190.053 132.522Z" fill="#1E282D"/>
</g>
<path opacity="0.2" d="M207.251 142.074L212.525 149.126V135.034L207.251 142.074Z" fill="#0C2964"/>
<path opacity="0.2" d="M315.24 142.074L309.966 135.034V149.126L315.24 142.074Z" fill="#0C2964"/>
<path d="M199.562 307.805H189.044V418.01H199.562V307.805Z" fill="#263238"/>
<path opacity="0.2" d="M199.562 307.805H189.044V418.01H199.562V307.805Z" fill="#0C2964"/>
<path d="M274.863 307.805H264.344V418.01H274.863V307.805Z" fill="#263238"/>
<path opacity="0.2" d="M274.863 307.805H264.344V418.01H274.863V307.805Z" fill="#0C2964"/>
<path d="M99.1555 307.805H88.6373V418.01H99.1555V307.805Z" fill="#263238"/>
<path d="M23.8546 307.805H13.3364V418.01H23.8546V307.805Z" fill="#263238"/>
<path d="M296.419 303.73V311.881C296.419 313.196 295.365 314.266 294.052 314.266H3.38067C2.06769 314.266 1 313.196 1 311.881V303.73C1 302.429 2.06769 301.359 3.38067 301.359H294.052C295.365 301.359 296.419 302.429 296.419 303.73Z" fill="#263238"/>
<path opacity="0.1" d="M296.419 303.73V311.881C296.419 313.196 295.365 314.266 294.052 314.266H3.38067C2.06769 314.266 1 313.196 1 311.881V303.73C1 302.429 2.06769 301.359 3.38067 301.359H294.052C295.365 301.359 296.419 302.429 296.419 303.73Z" fill="white"/>
<path opacity="0.2" d="M83.0535 303.73V311.881C83.0535 313.196 82.0003 314.266 80.6873 314.266H3.38067C2.06769 314.266 1 313.196 1 311.881V303.73C1 302.429 2.06769 301.359 3.38067 301.359H80.6873C82.0003 301.359 83.0535 302.429 83.0535 303.73Z" fill="white"/>
<path d="M152.883 204.379L165.405 182.193L171.908 181.35C171.908 181.35 170.4 196.825 167.587 203.325C167.587 203.325 165.283 211.043 156.859 211.158C148.436 211.272 152.886 204.387 152.886 204.387L152.883 204.379Z" fill="#FFC7B1"/>
<path d="M146.774 174.917C151.808 178.528 150.947 188.652 152.927 191.546C154.665 204.021 158.718 193.863 158.718 193.863L169.721 195.6C169.721 195.6 170.348 202.226 164.509 210.656C158.671 219.1 147.548 217.856 141.442 204.309C135.335 190.762 146.789 174.917 146.789 174.917H146.774Z" fill="#407BFF"/>
<path d="M146.774 174.917C151.808 178.528 150.947 188.652 152.927 191.546C154.665 204.021 158.718 193.863 158.718 193.863L169.721 195.6C169.721 195.6 170.348 202.226 164.509 210.656C158.671 219.1 147.548 217.856 141.442 204.309C135.335 190.762 146.789 174.917 146.789 174.917H146.774Z" fill="white" fill-opacity="0.2"/>
<path d="M212.963 410.141L223.017 407.38L221.215 382.823L211.191 385.598L212.963 410.141Z" fill="#EBB376"/>
<path d="M223.627 406.037L211.98 406.843C211.578 406.843 211.25 407.186 211.265 407.604L211.34 416.899C211.414 417.899 212.278 418.674 213.276 418.615C217.342 418.272 219.263 417.899 224.387 417.496C227.53 417.272 233.77 417.123 238.03 416.123C242.289 415.138 241.187 410.946 239.311 410.991C234.828 411.065 228.557 408.604 225.474 406.5C224.938 406.142 224.298 405.978 223.642 406.023L223.627 406.037Z" fill="#263238"/>
<path d="M227.425 407.559C226.487 407.604 225.548 407.544 224.625 407.38C224.536 407.38 224.446 407.305 224.431 407.216C224.417 407.126 224.431 407.022 224.506 406.962C224.819 406.709 227.634 404.501 228.929 404.903C229.227 405.008 229.466 405.247 229.54 405.56C229.749 406.022 229.659 406.56 229.332 406.932C228.795 407.38 228.11 407.604 227.41 407.574L227.425 407.559ZM228.795 405.396C228.095 405.172 226.427 406.172 225.28 407.022C227.157 407.261 228.527 407.112 228.974 406.589C229.168 406.336 229.212 406.007 229.093 405.709C229.063 405.56 228.944 405.441 228.795 405.396Z" fill="#263238"/>
<path d="M224.685 407.38C224.685 407.38 224.625 407.409 224.58 407.394C224.506 407.365 224.461 407.29 224.431 407.215C224.431 407.126 223.97 404.112 224.938 403.023C225.206 402.74 225.563 402.59 225.951 402.62C226.383 402.605 226.755 402.889 226.874 403.292C227.187 404.411 225.787 406.693 224.804 407.38C224.759 407.394 224.714 407.394 224.67 407.38H224.685ZM225.831 403.142C225.638 403.142 225.459 403.247 225.325 403.396C224.744 404.038 224.789 405.768 224.878 406.738C225.712 405.917 226.591 404.202 226.427 403.456C226.397 403.321 226.293 403.157 225.951 403.142H225.831Z" fill="#263238"/>
<path opacity="0.2" d="M211.191 385.597L221.215 382.837L222.242 396.876L212.159 399.129L211.191 385.597Z" fill="#0C2964"/>
<path d="M199.841 409.781L190.354 414.108L187.941 403.903L184.694 390.177L194.152 385.836L197.399 399.547L199.841 409.781Z" fill="#EBB376"/>
<path opacity="0.2" d="M197.399 399.547L187.941 403.903L184.694 390.177L194.152 385.836L197.399 399.547Z" fill="#0C2964"/>
<path d="M200.229 408.365L188.85 411.021C188.447 411.096 188.179 411.484 188.254 411.886L189.803 421.047C190.026 422.032 191.009 422.643 191.992 422.435C195.954 421.435 197.786 420.764 202.776 419.555C205.844 418.824 211.98 417.69 216.031 416.034C220.082 414.378 218.325 410.424 216.478 410.767C212.069 411.558 205.486 410.126 202.105 408.544C201.51 408.276 200.854 408.216 200.229 408.365Z" fill="#263238"/>
<path d="M204.22 409.26C203.297 409.454 202.374 409.543 201.435 409.528C201.346 409.528 201.256 409.483 201.212 409.394C201.182 409.304 201.197 409.2 201.242 409.125C201.51 408.827 203.923 406.186 205.293 406.38C205.606 406.425 205.874 406.634 205.993 406.932C206.261 407.35 206.276 407.887 206.008 408.32C205.546 408.842 204.92 409.185 204.22 409.26ZM205.233 406.902C204.503 406.798 203.029 408.036 202.016 409.066C203.908 409.006 205.233 408.633 205.606 408.051C205.754 407.768 205.74 407.439 205.576 407.171C205.516 407.022 205.382 406.917 205.233 406.902Z" fill="#263238"/>
<path d="M201.48 409.514C201.48 409.514 201.42 409.558 201.391 409.558C201.316 409.529 201.257 409.484 201.212 409.409C201.197 409.32 200.274 406.425 201.048 405.187C201.257 404.874 201.599 404.665 201.986 404.62C202.403 404.531 202.835 404.754 203.014 405.142C203.491 406.187 202.478 408.678 201.614 409.499C201.569 409.529 201.525 409.529 201.48 409.529V409.514ZM201.927 405.142C201.733 405.187 201.569 405.306 201.48 405.47C201.003 406.202 201.316 407.887 201.569 408.842C202.269 407.902 202.865 406.067 202.582 405.366C202.523 405.232 202.403 405.083 202.061 405.127H201.942L201.927 405.142Z" fill="#263238"/>
<path d="M129.527 270.358L126.474 236.431L69.9211 237.759C69.9211 237.759 63.2188 285.024 68.0892 293.707C76.7724 309.209 133.787 300.406 147.117 301.734C152.553 304.644 181.701 401.352 181.701 401.352L198.01 394.758C198.01 394.758 180.464 313.133 176.473 297.751C170.917 276.371 148.264 276.744 129.542 270.343L129.527 270.358Z" fill="#407BFF"/>
<path opacity="0.6" d="M129.527 270.358L126.474 236.431L69.9211 237.759C69.9211 237.759 63.2188 285.024 68.0892 293.707C76.7724 309.209 133.787 300.406 147.117 301.734C152.553 304.644 181.701 401.352 181.701 401.352L198.01 394.758C198.01 394.758 180.464 313.133 176.473 297.751C170.917 276.371 148.264 276.744 129.542 270.343L129.527 270.358Z" fill="white"/>
<path d="M223.24 393.102L208.853 394.429C208.853 394.429 191.203 304.419 189.848 304.046C187.39 303.345 180.241 302.54 176.398 301.54C149.694 294.587 83.9514 281.786 83.9514 281.786L108.199 258.392C108.199 258.392 218.131 271.611 220.574 297.452C221.751 309.88 223.255 393.102 223.255 393.102H223.24Z" fill="#407BFF"/>
<path opacity="0.6" d="M223.24 393.102L208.853 394.429C208.853 394.429 191.203 304.419 189.848 304.046C187.39 303.345 180.241 302.54 176.398 301.54C149.694 294.587 83.9514 281.786 83.9514 281.786L108.199 258.392C108.199 258.392 218.131 271.611 220.574 297.452C221.751 309.88 223.255 393.102 223.255 393.102H223.24Z" fill="white"/>
<path opacity="0.2" d="M185.945 304.122C183.488 303.421 180.226 302.555 176.383 301.556C177.441 302.123 174.358 288.098 171.275 284.473C165.153 277.252 140.593 273.343 131.791 271.925C124.418 270.747 99.709 268.553 99.709 268.553C99.709 268.553 140.099 267.459 173 276.5C180.766 280.68 189.594 294.185 185.96 304.122H185.945Z" fill="#0C2964"/>
<path d="M127.754 243.369C131.061 224.376 136.631 198.923 146.923 175.126C141.502 172.829 135.931 170.934 130.242 169.457C121.931 167.204 113.501 165.429 104.996 164.146C99.1132 163.519 93.1854 163.355 87.2725 163.653C87.2725 163.653 74.5232 187.51 68.0592 243.369H127.754Z" fill="#407BFF"/>
<path d="M109.346 180.245C109.346 180.245 94.5111 168.384 92.6345 161.371C90.7578 154.359 99.4708 149.63 111.684 152.33C123.897 155.03 135.202 162.729 131.597 171.8C127.993 180.871 121.678 182.93 121.678 182.93C121.678 182.93 119.056 177.723 109.346 180.245Z" fill="#407BFF"/>
<path d="M139.609 186.804L142.504 185.646L148.83 182.554L150.725 174.538C151.026 173.285 151.794 172.199 152.871 171.498C154.015 170.755 155.418 170.521 156.746 170.838L162.232 173.085C162.691 173.268 163.042 173.661 163.133 174.145C163.209 174.554 163.108 174.947 162.407 174.888C161.046 174.78 158.207 174.479 158.207 174.479L159.501 179.047C159.844 180.241 159.71 181.527 159.134 182.629L158.307 184.208L156.746 185.646L155.244 186.804C155.244 186.804 146.288 197.763 136.134 198.965C130.03 199.692 125.132 194.332 125.132 194.332L126.869 192.358L139.609 186.804Z" fill="#FFC7B1"/>
<path d="M158.374 174.796C158.374 174.796 158.232 174.604 157.923 174.395C157.614 174.195 157.121 173.936 156.512 173.961C155.885 173.994 155.426 174.404 155.268 174.763C155.101 175.138 155.209 175.389 155.234 175.381C155.284 175.381 155.251 175.138 155.435 174.854C155.61 174.579 156.019 174.262 156.528 174.237C157.046 174.211 157.505 174.412 157.831 174.571C158.157 174.729 158.357 174.838 158.374 174.804V174.796Z" fill="#AA6550"/>
<path d="M156.028 177.644C156.028 177.644 156.145 177.494 156.329 177.268C156.504 177.051 156.796 176.775 157.189 176.625C157.581 176.466 157.982 176.466 158.257 176.508C158.541 176.55 158.708 176.608 158.733 176.575C158.75 176.55 158.6 176.416 158.299 176.316C158.007 176.224 157.548 176.191 157.088 176.366C156.629 176.55 156.32 176.884 156.17 177.16C156.011 177.435 155.995 177.627 156.028 177.644Z" fill="#AA6550"/>
<path opacity="0.2" d="M109.346 180.245C109.346 180.245 94.5111 168.384 92.6345 161.371C90.7578 154.359 99.4708 149.63 111.684 152.33C123.897 155.03 135.202 162.729 131.597 171.8C127.993 180.871 121.678 182.93 121.678 182.93C121.678 182.93 119.056 177.723 109.346 180.245Z" fill="white"/>
<path d="M117.952 143.699C115.689 151.86 110.797 165.447 103.126 167.804C103.126 167.804 108.316 177.835 116.776 178.61C122.153 179.103 125.131 173.016 125.131 173.016C119.65 171.986 121.736 167.958 126.07 162.915L117.952 143.714V143.699Z" fill="#FFBF9D"/>
<path opacity="0.2" d="M122.363 150.643L127.159 162.012C126.131 163.176 125.208 164.429 124.403 165.757C119.012 166.16 115.139 157.596 116.465 154.12C116.941 152.687 121.41 151.807 122.378 150.643H122.363Z" fill="#0C2964"/>
<path d="M127.159 212.903H127.129C126.92 212.903 126.771 212.709 126.786 212.5C128.023 194.224 121.916 182.288 121.856 182.184C121.767 182.005 121.827 181.781 122.02 181.676C122.199 181.587 122.422 181.647 122.527 181.841C122.586 181.96 128.797 194.06 127.546 212.56C127.546 212.754 127.367 212.903 127.174 212.903H127.159Z" fill="white"/>
<path d="M104.595 206.399C104.595 206.399 104.46 206.384 104.401 206.354C104.222 206.249 104.163 206.026 104.267 205.847C110.954 194.463 108.988 179.036 108.973 178.872C108.944 178.663 109.093 178.484 109.286 178.454C109.48 178.424 109.673 178.574 109.703 178.768C109.718 178.932 111.714 194.597 104.907 206.22C104.833 206.339 104.714 206.399 104.58 206.399H104.595Z" fill="white"/>
<path d="M126.875 212.277C126.875 212.277 128.067 212.337 127.858 214.276L126.116 214.097C126.116 214.097 125.922 212.471 126.875 212.277Z" fill="white"/>
<path d="M104.714 205.34C104.714 205.34 105.711 206.011 104.535 207.563L103.12 206.518C103.12 206.518 103.775 205.026 104.714 205.34Z" fill="white"/>
<path d="M88.6876 163.668C94.4218 164.996 108.169 188.808 115.512 193.194C122.854 197.581 143.17 183.467 143.17 183.467L150.125 192.135C150.125 192.135 133.668 206.667 119.265 207.01C104.863 207.353 84.4428 186.958 81.4045 179.468C78.3661 171.993 81.7172 162.042 88.6876 163.653V163.668Z" fill="#407BFF"/>
<path opacity="0.2" d="M88.6876 163.668C94.4218 164.996 108.169 188.808 115.512 193.194C122.854 197.581 143.17 183.467 143.17 183.467L150.125 192.135C150.125 192.135 133.668 206.667 119.265 207.01C104.863 207.353 84.4428 186.958 81.4045 179.468C78.3661 171.993 81.7172 162.042 88.6876 163.653V163.668Z" fill="white"/>
<path d="M138.014 136.775C139.884 137.312 142.075 136.235 142.799 134.425C143.523 132.615 142.671 130.326 140.947 129.426C142.34 128.405 142.964 126.466 142.438 124.819C141.909 123.181 140.261 121.965 138.534 121.953C138.743 120.262 138.01 118.489 136.667 117.442C135.324 116.394 133.425 116.106 131.836 116.725C130.246 114.827 127.274 114.265 125.102 115.457C123.52 114.879 121.601 115.453 120.594 116.794C119.586 118.134 119.564 120.137 120.551 121.496" fill="#263238"/>
<path d="M136.13 158.851C136.911 154.55 137.796 145.563 138.496 137.416C139.251 128.663 133.158 120.791 124.491 119.337L123.634 119.193C114.259 118.173 108.152 125.57 107.392 134.968L103.127 167.804L125.132 173.016L125.352 167.65C125.352 167.65 134.512 167.767 136.127 158.859L136.13 158.851Z" fill="#FFBF9D"/>
<path d="M125.431 167.645C125.431 167.645 119.677 167.028 114.314 162.253C114.314 162.253 115.981 169.137 125.029 169.834L125.439 167.649L125.431 167.645Z" fill="#FF9A6C"/>
<path d="M133.369 144.554C133.283 145.233 132.634 145.711 131.923 145.63C131.213 145.549 130.709 144.938 130.804 144.262C130.891 143.583 131.54 143.106 132.25 143.186C132.961 143.267 133.464 143.879 133.369 144.554Z" fill="#263238"/>
<path d="M135.842 141.458C135.655 141.601 134.812 140.719 133.439 140.491C132.073 140.246 130.945 140.781 130.826 140.585C130.765 140.501 130.979 140.225 131.471 139.98C131.954 139.731 132.748 139.548 133.594 139.696C134.449 139.848 135.117 140.278 135.471 140.671C135.834 141.068 135.929 141.389 135.845 141.45L135.842 141.458Z" fill="#263238"/>
<path d="M121.206 142.632C121.119 143.311 120.47 143.789 119.76 143.708C119.049 143.628 118.546 143.016 118.641 142.341C118.727 141.662 119.376 141.184 120.087 141.265C120.797 141.346 121.3 141.957 121.206 142.632Z" fill="#263238"/>
<path d="M122.454 139.528C122.28 139.686 121.369 138.872 119.979 138.753C118.599 138.609 117.52 139.232 117.386 139.049C117.313 138.969 117.507 138.675 117.984 138.395C118.453 138.111 119.216 137.866 120.082 137.945C120.948 138.024 121.644 138.409 122.029 138.776C122.426 139.139 122.541 139.459 122.454 139.528Z" fill="#263238"/>
<path d="M125.577 150.458C125.581 150.382 126.465 150.372 127.872 150.431C128.228 150.457 128.574 150.44 128.672 150.211C128.793 149.972 128.713 149.571 128.611 149.13C128.425 148.229 128.228 147.284 128.024 146.287C127.222 142.25 126.713 138.955 126.874 138.918C127.031 138.888 127.813 142.134 128.615 146.172C128.803 147.161 128.984 148.119 129.158 149.025C129.22 149.448 129.377 149.941 129.112 150.428C128.975 150.679 128.685 150.816 128.451 150.842C128.214 150.876 128.016 150.841 127.84 150.823C126.439 150.661 125.577 150.525 125.581 150.449L125.577 150.458Z" fill="#263238"/>
<path d="M122.743 134.815C122.602 135.19 121.368 134.953 119.889 135.087C118.416 135.184 117.218 135.611 117.037 135.263C116.955 135.092 117.178 134.752 117.675 134.403C118.16 134.059 118.935 133.741 119.815 133.672C120.696 133.603 121.497 133.79 122.02 134.061C122.546 134.324 122.8 134.636 122.743 134.815Z" fill="#263238"/>
<path d="M136.372 137.631C136.036 137.875 135.093 137.318 133.867 137.017C132.65 136.672 131.547 136.695 131.389 136.318C131.322 136.134 131.553 135.865 132.076 135.682C132.591 135.495 133.401 135.435 134.235 135.655C135.07 135.876 135.739 136.326 136.095 136.739C136.459 137.156 136.52 137.511 136.372 137.631Z" fill="#263238"/>
<path d="M138.319 133.18C138.319 133.18 136.906 127.198 134.427 125.434C131.428 123.303 129.421 126.646 126.463 125.257C123.497 123.866 120.643 121.826 117.06 123.692C113.141 125.735 114.461 127.856 113.578 131.784C110.002 147.691 106.308 151.745 106.743 144.037C106.792 143.197 104.6 142.145 104.851 138.586C105.175 133.974 105.925 128.431 107.487 125.383C108.798 122.808 110.666 121.196 113.787 119.597C118.717 117.066 124.746 118.014 128.767 119.111C132.788 120.207 139.878 126.241 138.323 133.172L138.319 133.18Z" fill="#263238"/>
<path d="M107.356 143.893C107.532 142.507 106.525 141.216 105.136 141.116C103.446 140.995 101.435 141.627 100.966 145.084C100.137 151.221 106.465 150.787 106.499 150.618C106.519 150.501 107.033 146.464 107.356 143.893Z" fill="#FFBF9D"/>
<path d="M105.472 148.127C105.472 148.127 105.36 148.186 105.16 148.246C104.972 148.301 104.666 148.316 104.357 148.155C103.743 147.825 103.334 146.722 103.458 145.614C103.524 145.052 103.704 144.539 103.966 144.128C104.216 143.702 104.546 143.427 104.88 143.415C105.213 143.383 105.418 143.606 105.473 143.794C105.532 143.974 105.479 144.097 105.504 144.107C105.517 144.122 105.646 144.023 105.631 143.764C105.627 143.637 105.566 143.485 105.442 143.345C105.31 143.202 105.105 143.114 104.877 143.104C104.397 143.074 103.918 143.449 103.634 143.909C103.327 144.358 103.098 144.938 103.033 145.568C102.9 146.808 103.378 148.047 104.23 148.43C104.648 148.608 105.025 148.517 105.229 148.401C105.437 148.277 105.493 148.146 105.472 148.127Z" fill="#FF9A6C"/>
<path d="M109.462 132.089C110.16 132.764 110.908 133.461 111.844 133.715C112.781 133.97 113.971 133.607 114.286 132.687C114.432 132.275 114.409 131.762 114.743 131.479C115.137 131.144 115.737 131.371 116.24 131.508C117.987 131.993 120.007 131.046 120.749 129.398C121.085 130.151 122.143 130.303 122.904 129.97C123.662 129.645 124.229 128.997 124.867 128.476C125.505 127.955 126.353 127.533 127.137 127.781C127.58 127.921 127.956 128.265 128.416 128.297C129.23 128.364 129.779 127.486 130.031 126.713C130.283 125.94 130.539 125.024 131.293 124.707C131.989 124.414 132.761 124.782 133.484 125.013C134.208 125.245 135.188 125.237 135.493 124.545C135.65 124.177 135.557 123.76 135.404 123.394C134.706 121.742 132.743 120.721 130.988 121.114C130.729 119 129.108 117.109 127.06 116.535C125.004 115.958 122.639 116.738 121.325 118.412C120.233 117.027 118.442 116.214 116.674 116.321C114.91 116.42 113.221 117.431 112.299 118.933C110.881 118.289 109.093 118.581 107.945 119.639C106.797 120.697 106.368 122.449 106.892 123.92C105.686 124.364 104.563 125.297 104.328 126.551C104.089 127.813 105.11 129.274 106.382 129.149C105.727 130.05 105.903 131.451 106.759 132.164C107.619 132.87 109.029 132.785 109.785 131.966" fill="#263238"/>
<path d="M131.154 122.993C131.154 122.993 131.156 123.033 131.137 123.102C131.117 123.17 131.096 123.287 131.04 123.418C130.933 123.692 130.754 124.089 130.397 124.518C130.044 124.938 129.522 125.412 128.804 125.734C128.094 126.06 127.164 126.244 126.183 126.028L126.311 125.908C126.412 126.464 126.254 127.084 125.901 127.572C125.561 128.075 125.092 128.494 124.602 128.894C124.354 129.088 124.129 129.321 123.8 129.481C123.482 129.635 123.131 129.688 122.767 129.678C122.064 129.649 121.321 129.303 120.927 128.641L121.168 128.619C120.806 129.809 119.915 130.899 118.689 131.46C118.039 131.782 117.277 131.912 116.579 131.778C115.878 131.653 115.249 131.336 114.679 131.016L114.852 130.974C114.397 131.679 113.781 132.238 113.09 132.611C112.407 132.987 111.562 133.13 110.866 132.833C109.474 132.287 108.718 130.929 108.72 129.769L108.849 129.853C108.067 130.12 107.293 130.031 106.701 129.807C106.098 129.589 105.65 129.233 105.351 128.912C105.048 128.58 104.89 128.27 104.797 128.057C104.717 127.838 104.689 127.72 104.693 127.712C104.731 127.69 104.819 128.211 105.431 128.84C105.736 129.144 106.175 129.476 106.761 129.668C107.334 129.865 108.068 129.936 108.798 129.677L108.923 129.633L108.923 129.769C108.945 130.852 109.668 132.128 110.957 132.62C111.587 132.889 112.333 132.752 112.977 132.398C113.621 132.045 114.211 131.503 114.637 130.843L114.702 130.735L114.817 130.784C115.375 131.11 115.979 131.416 116.628 131.528C117.281 131.652 117.96 131.535 118.583 131.231C119.736 130.707 120.571 129.68 120.925 128.554L121.016 128.273L121.167 128.531C121.505 129.101 122.162 129.42 122.801 129.441C123.113 129.458 123.436 129.403 123.712 129.279C123.979 129.151 124.213 128.921 124.468 128.731C124.955 128.338 125.409 127.932 125.732 127.47C126.063 127.012 126.205 126.473 126.119 125.972L126.098 125.818L126.248 125.852C127.17 126.072 128.061 125.91 128.749 125.614C129.456 125.316 129.964 124.875 130.327 124.478C131.038 123.65 131.131 123.002 131.172 123.02L131.154 122.993Z" fill="#455A64"/>
<path d="M121.241 151.618C122.859 152.202 124.402 152.986 125.831 153.944L125.841 153.987C125.466 155.094 124.916 156.291 123.835 156.739C123.026 157.071 122.053 156.879 121.382 156.321C120.71 155.764 120.346 155.009 120.349 154.139C120.352 153.27 120.836 152.364 121.233 151.614L121.241 151.618Z" fill="#FF9A6C"/>
<path d="M122.796 156.769C122.811 156.688 122.062 156.813 121.32 156.081C120.959 155.724 120.648 155.185 120.592 154.522C120.528 153.856 120.698 153.116 121.05 152.406C121.128 152.245 121.246 152.015 121.32 151.931C121.37 151.904 121.287 151.917 121.352 151.925L121.597 152.03C121.939 152.204 122.267 152.364 122.596 152.523C123.191 152.806 123.765 153.071 124.306 153.321C125.286 153.768 125.907 154.014 125.931 153.957C125.956 153.899 125.389 153.551 124.445 153.042C123.918 152.759 123.366 152.465 122.781 152.157C122.456 151.99 122.131 151.822 121.789 151.647C121.691 151.605 121.633 151.561 121.51 151.509C121.389 151.428 121.082 151.491 121.003 151.631C120.829 151.857 120.775 152.008 120.659 152.21C120.287 152.97 120.094 153.807 120.196 154.566C120.277 155.327 120.678 155.952 121.114 156.312C121.544 156.689 122.018 156.824 122.327 156.849C122.647 156.87 122.81 156.804 122.801 156.781L122.796 156.769Z" fill="#263238"/>
<path d="M162.295 162.733L170.297 160.764C171.506 160.467 172.937 161.603 172.783 162.862L168.586 180.517C168.428 181.201 167.889 181.737 167.208 181.905L157.448 184.28C156.291 184.401 155.58 183.26 155.877 182.473L159.869 165.212C160.135 163.986 161.076 163.024 162.293 162.724L162.295 162.733Z" fill="#455A64"/>
<path d="M163.069 163.541L171.072 161.573C172.077 161.325 172.985 162.22 172.743 163.226L168.657 180.492C168.499 181.176 167.96 181.713 167.279 181.88L157.63 184.253C157.038 184.399 156.505 183.876 156.643 183.283L160.635 166.023C160.901 164.797 161.843 163.834 163.059 163.535L163.069 163.541Z" fill="#263238"/>
<path d="M165 169.336L170.402 169.493L172.803 172.917L171.69 183.647L164.728 183.647L166.253 180.261L165.144 178.203C165.144 178.203 162.556 178.324 162.372 177.991C162.188 177.659 162.097 176.34 162.427 176.148C162.759 175.964 165.528 175.973 165.528 175.973C165.528 175.973 161.807 174.748 161.758 174.348C161.702 173.951 161.673 172.903 162.206 172.583C162.741 172.272 168.199 172.754 168.199 172.754L169.584 174.203L169.234 171.21C169.234 171.21 164.677 171.562 165.01 169.315L165 169.336Z" fill="#FFC7B1"/>
<path d="M167.664 178.455C167.664 178.455 167.721 178.247 167.649 177.927C167.584 177.604 167.399 177.173 167.071 176.787C166.743 176.4 166.342 176.155 166.04 176.035C165.73 175.917 165.532 175.91 165.524 175.939C165.498 176.011 166.27 176.226 166.875 176.956C167.49 177.665 167.588 178.465 167.664 178.455Z" fill="#AA6550"/>
<path d="M169.605 176.809C169.605 176.809 169.294 176.398 168.966 175.647C168.786 175.277 168.595 174.804 168.231 174.368C168.045 174.152 167.825 173.939 167.533 173.797C167.24 173.655 166.911 173.607 166.586 173.592C165.308 173.598 164.176 173.639 163.342 173.669C162.511 173.706 161.999 173.743 162.003 173.777C162.007 173.811 162.515 173.838 163.344 173.846C164.169 173.864 165.32 173.851 166.572 173.846C166.879 173.858 167.171 173.903 167.417 174.017C167.664 174.131 167.875 174.321 168.045 174.516C168.395 174.913 168.603 175.361 168.799 175.725C169.18 176.475 169.579 176.836 169.605 176.809Z" fill="#AA6550"/>
<path d="M170.374 175.559C170.434 175.529 170.274 175.116 170.004 174.646C169.734 174.175 169.47 173.819 169.413 173.857C169.353 173.888 169.513 174.301 169.783 174.771C170.053 175.241 170.317 175.598 170.374 175.559Z" fill="#AA6550"/>
<path d="M167.429 165.607C167.567 166.167 167.227 166.74 166.659 166.88C166.091 167.02 165.526 166.677 165.386 166.11C165.247 165.542 165.589 164.976 166.156 164.837C166.724 164.697 167.29 165.039 167.429 165.607Z" fill="#FAFAFA"/>
<path d="M73.8425 242.62C73.8425 242.62 83.2342 249.66 86.6031 265.514C89.972 281.356 102.611 316.401 73.8425 302.563L74.5817 299.285C74.5817 299.285 83.7553 307.127 87.1121 301.846C90.4567 296.566 88.7238 268.233 75.2119 253.181L73.8425 242.62Z" fill="#263238"/>
<path d="M54.4653 236.052C54.4653 236.052 57.8827 229.169 62.9118 229.012C67.9409 228.854 69.6981 230.286 69.383 235.251L67.1169 235.409C67.1169 235.409 69.4072 231.257 63.9418 231.087C58.4765 230.917 56.9132 236.052 56.9132 236.052H54.4653Z" fill="#263238"/>
<path d="M27.0415 305.257C27.0415 305.257 22.6183 277.835 34.1307 269.52C34.1307 269.52 32.3009 263.766 41.5714 244.853C45.4129 237.011 48.6727 234.85 51.9204 234.717L74.3635 233.782C76.7266 233.685 78.7746 235.397 79.0897 237.752C80.6651 249.478 84.4702 283.468 79.1988 305.257H27.0536H27.0415Z" fill="#263238"/>
<path opacity="0.1" d="M27.0415 305.257C27.0415 305.257 22.6183 277.835 34.1307 269.52C34.1307 269.52 32.3009 263.766 41.5714 244.853C45.4129 237.011 48.6727 234.85 51.9204 234.717L74.3635 233.782C76.7266 233.685 78.7746 235.397 79.0897 237.752C80.6651 249.478 84.4702 283.468 79.1988 305.257H27.0536H27.0415Z" fill="white"/>
<path d="M63.0935 263.766C65.3111 263.851 67.0441 261.799 66.5351 259.639C65.4929 255.171 62.5845 248.641 54.4653 247.427C45.7643 246.128 40.2505 254.006 37.6935 258.959C36.7846 260.731 38.0207 262.843 40.0202 262.916L63.0935 263.766Z" fill="#263238"/>
<path d="M30.7013 276.391C31.2708 274.424 60.27 275.59 62.1847 276.391C64.0994 277.192 61.7848 297.355 60.064 299.285C58.3432 301.203 30.059 299.929 27.9019 299.285C25.7449 298.642 26.06 292.56 30.7013 276.391Z" fill="#263238"/>
<path opacity="0.2" d="M63.0935 263.766C65.3111 263.851 67.0441 261.799 66.5351 259.639C65.4929 255.171 62.5845 248.641 54.4653 247.427C45.7643 246.128 40.2505 254.006 37.6935 258.959C36.7846 260.731 38.0207 262.843 40.0202 262.916L63.0935 263.766Z" fill="white"/>
<path opacity="0.2" d="M30.7013 276.391C31.2708 274.424 60.27 275.59 62.1847 276.391C64.0994 277.192 61.7848 297.355 60.064 299.285C58.3432 301.203 30.059 299.929 27.9019 299.285C25.7449 298.642 26.06 292.56 30.7013 276.391Z" fill="white"/>
<path d="M77.1991 283.723C77.1991 283.723 77.1506 283.723 77.1143 283.723C76.7871 283.674 76.5447 283.371 76.5932 283.043C78.1443 271.353 75.6843 242.899 75.1632 240.847C74.6664 238.832 73.3939 237.752 71.4065 237.618C68.9102 237.46 48.9513 237.618 48.7574 237.618C48.4302 237.618 48.1515 237.351 48.1515 237.011C48.1515 236.671 48.4181 236.404 48.7574 236.404C49.5815 236.404 68.9586 236.247 71.5035 236.404C74.012 236.562 75.7328 238.031 76.3629 240.544C76.8477 242.474 79.4531 270.892 77.8171 283.189C77.7808 283.492 77.5142 283.711 77.2112 283.711L77.1991 283.723Z" fill="#263238"/>
<path d="M58.8884 280.845C58.8884 280.845 58.8036 280.845 58.7673 280.845C51.7871 279.437 31.6828 280.202 31.4889 280.214C31.1738 280.214 30.8709 279.971 30.8588 279.632C30.8466 279.292 31.1011 279.012 31.4404 279C32.2766 278.964 51.8962 278.211 59.0096 279.656C59.3368 279.716 59.5549 280.044 59.4822 280.372C59.4216 280.663 59.1671 280.858 58.8884 280.858V280.845Z" fill="#263238"/>
<path d="M64.584 259.396C64.3295 259.396 64.0871 259.238 64.0023 258.971C62.6693 254.868 59.3489 248.095 52.0537 248.665C44.5767 249.272 41.3653 257.417 41.3411 257.49C41.2199 257.806 40.8684 257.964 40.5534 257.842C40.2383 257.721 40.0807 257.369 40.2019 257.053C40.3474 256.689 43.7162 248.107 51.9567 247.451C60.0881 246.771 63.7236 254.152 65.1535 258.595C65.2626 258.91 65.0808 259.25 64.7658 259.36C64.7052 259.384 64.6446 259.384 64.584 259.384V259.396Z" fill="#263238"/>
</svg>
