<svg width="20" height="20" viewBox="0 0 20 20" fill="none" xmlns="http://www.w3.org/2000/svg">
<path d="M10.6384 9.44034L2.9491 0.173296C2.85874 0.0625002 2.71719 0 2.5696 0H0.241436C0.0396415 0 -0.0717975 0.21875 0.0516888 0.366477L8.04517 10L0.0516888 19.6335C0.0238797 19.667 0.00662458 19.7072 0.00189631 19.7495C-0.00283197 19.7918 0.00515767 19.8346 0.0249513 19.8728C0.0447449 19.911 0.0755439 19.9432 0.113827 19.9657C0.15211 19.9882 0.196331 20.0001 0.241436 20H2.5696C2.71719 20 2.85874 19.9347 2.9491 19.8267L10.6384 10.5625C10.9125 10.2301 10.9125 9.76989 10.6384 9.44034ZM19.7944 9.44034L12.1052 0.173296C12.0148 0.0625002 11.8732 0 11.7257 0H9.39749C9.1957 0 9.08426 0.21875 9.20775 0.366477L17.2012 10L9.20775 19.6335C9.17994 19.667 9.16268 19.7072 9.15795 19.7495C9.15323 19.7918 9.16122 19.8346 9.18101 19.8728C9.2008 19.911 9.2316 19.9432 9.26988 19.9657C9.30817 19.9882 9.35239 20.0001 9.39749 20H11.7257C11.8732 20 12.0148 19.9347 12.1052 19.8267L19.7944 10.5625C20.0685 10.2301 20.0685 9.76989 19.7944 9.44034Z" fill="white"/>
</svg>
